<svg width="175" height="35" viewBox="0 0 785 71" fill="none" xmlns="http://www.w3.org/2000/svg">
<path d="M50.2969 48.6562C50.2969 53.125 49.0938 57.0156 46.6875 60.3281C44.3125 63.6406 40.9688 66.1094 36.6562 67.7344C32.3438 69.3594 27.1562 70.1719 21.0938 70.1719C14.0625 70.1719 7.625 68.9844 1.78125 66.6094V48.1875C4.59375 50.25 7.70312 51.9219 11.1094 53.2031C14.5156 54.4531 17.6875 55.0781 20.625 55.0781C22.8438 55.0781 24.5625 54.6875 25.7812 53.9062C27 53.0938 27.6094 51.9219 27.6094 50.3906C27.6094 49.2969 27.2969 48.3438 26.6719 47.5312C26.0781 46.6875 25.1562 45.9062 23.9062 45.1875C22.6875 44.4688 20.4062 43.4844 17.0625 42.2344C6.25 38.0781 0.84375 31.3594 0.84375 22.0781C0.84375 15.5781 3.3125 10.3906 8.25 6.51562C13.1875 2.60938 19.8125 0.65625 28.125 0.65625C30.4688 0.65625 32.625 0.75 34.5938 0.9375C36.5625 1.125 38.3438 1.35938 39.9375 1.64062C41.5625 1.92188 43.8281 2.45312 46.7344 3.23438V20.3438C41.0781 17.25 35.5156 15.7031 30.0469 15.7031C27.7969 15.7031 25.9844 16.125 24.6094 16.9688C23.2344 17.8125 22.5469 18.9688 22.5469 20.4375C22.5469 21.8438 23.0938 23.0156 24.1875 23.9531C25.3125 24.8594 27.6406 26.0469 31.1719 27.5156C38.1406 30.3281 43.0625 33.4062 45.9375 36.75C48.8438 40.0938 50.2969 44.0625 50.2969 48.6562ZM100.688 69L97.7344 56.625H77.6719L74.4844 69H52.5938L75.75 1.78125H100.875L122.672 69H100.688ZM87.9375 16.4062H87.4688C87.4062 17.1562 87.1875 18.3906 86.8125 20.1094C86.4375 21.8281 84.5469 29.2031 81.1406 42.2344H93.9844L89.2969 23.9531C88.6406 21.2656 88.1875 18.75 87.9375 16.4062ZM192.094 69V32.1562C192.094 28.6875 192.203 24.875 192.422 20.7188L192.562 17.625H192C191 22.9062 190.234 26.5625 189.703 28.5938L179.812 69H160.781L150.422 29.0625C150.141 28.0625 149.406 24.25 148.219 17.625H147.656C148.094 28.125 148.312 34.6875 148.312 37.3125V69H130.547V1.78125H160.875L170.109 38.2969C170.328 39.0469 170.609 40.5781 170.953 42.8906C171.328 45.1719 171.562 46.9375 171.656 48.1875H171.938C172.281 45.3438 172.828 41.9844 173.578 38.1094L182.203 1.78125H212.062V69H192.094ZM282.75 48.375C282.75 54.9688 280.438 60.0625 275.812 63.6562C271.188 67.2188 264.578 69 255.984 69H225.328V1.78125H253.875C271.719 1.78125 280.641 7.20312 280.641 18.0469C280.641 20.3906 280.078 22.5469 278.953 24.5156C277.828 26.4531 276.109 28.1562 273.797 29.625C271.516 31.0938 269 32.0938 266.25 32.625V32.8125C269.438 33.1875 272.297 34.1406 274.828 35.6719C277.359 37.1719 279.312 39.0625 280.688 41.3438C282.062 43.5938 282.75 45.9375 282.75 48.375ZM259.125 21.5625C259.125 17.4062 255.859 15.3281 249.328 15.3281H245.578V28.0312H251.438C253.688 28.0312 255.531 27.4375 256.969 26.25C258.406 25.0312 259.125 23.4688 259.125 21.5625ZM261.234 48.2812C261.234 46.3438 260.531 44.75 259.125 43.5C257.719 42.25 255.859 41.625 253.547 41.625H245.578V55.3594H252.328C255.078 55.3594 257.25 54.7344 258.844 53.4844C260.438 52.2031 261.234 50.4688 261.234 48.2812ZM335.203 69V43.9219H311.953V69H291.703V1.78125H311.953V26.6719H335.203V1.78125H355.453V69H335.203ZM427.359 38.2969C427.359 49.0781 424.891 57.0938 419.953 62.3438C415.047 67.5625 407.469 70.1719 397.219 70.1719C387.656 70.1719 380.391 67.5625 375.422 62.3438C370.484 57.0938 368.016 49.2031 368.016 38.6719V1.78125H388.359V39.4219C388.359 43.7344 389.156 47.0625 390.75 49.4062C392.375 51.7188 394.688 52.875 397.688 52.875C400.719 52.875 403.016 51.7812 404.578 49.5938C406.172 47.4062 406.969 44.1719 406.969 39.8906V1.78125H427.359V38.2969Z" fill="black"/>
<path d="M500.531 17.625V69H480.188V17.625H461.391V1.78125H519.562V17.625H500.531ZM591.609 35.2031C591.609 41.9531 590.156 48 587.25 53.3438C584.344 58.6562 580.281 62.7969 575.062 65.7656C569.844 68.7031 564 70.1719 557.531 70.1719C551.219 70.1719 545.469 68.75 540.281 65.9062C535.125 63.0312 531.109 59.0156 528.234 53.8594C525.359 48.6719 523.922 42.8125 523.922 36.2812C523.922 29.4375 525.375 23.2812 528.281 17.8125C531.188 12.3438 535.266 8.125 540.516 5.15625C545.766 2.15625 551.734 0.65625 558.422 0.65625C564.859 0.65625 570.609 2.09375 575.672 4.96875C580.766 7.8125 584.688 11.8906 587.438 17.2031C590.219 22.4844 591.609 28.4844 591.609 35.2031ZM570.141 35.7656C570.141 30.2344 569.078 25.875 566.953 22.6875C564.828 19.5 561.922 17.9062 558.234 17.9062C554.203 17.9062 551.062 19.4375 548.812 22.5C546.562 25.5625 545.438 29.8906 545.438 35.4844C545.438 40.9531 546.547 45.2188 548.766 48.2812C551.016 51.3438 554.062 52.875 557.906 52.875C560.25 52.875 562.359 52.1875 564.234 50.8125C566.109 49.4375 567.562 47.4688 568.594 44.9062C569.625 42.3438 570.141 39.2969 570.141 35.7656ZM659.766 38.2969C659.766 49.0781 657.297 57.0938 652.359 62.3438C647.453 67.5625 639.875 70.1719 629.625 70.1719C620.062 70.1719 612.797 67.5625 607.828 62.3438C602.891 57.0938 600.422 49.2031 600.422 38.6719V1.78125H620.766V39.4219C620.766 43.7344 621.562 47.0625 623.156 49.4062C624.781 51.7188 627.094 52.875 630.094 52.875C633.125 52.875 635.422 51.7812 636.984 49.5938C638.578 47.4062 639.375 44.1719 639.375 39.8906V1.78125H659.766V38.2969ZM707.109 69L702.094 54.5156C701.125 51.6719 699.859 49.4375 698.297 47.8125C696.766 46.1875 695.094 45.375 693.281 45.375H692.484V69H672.234V1.78125H699.141C708.547 1.78125 715.484 3.32812 719.953 6.42188C724.453 9.48438 726.703 14.0938 726.703 20.25C726.703 24.875 725.391 28.75 722.766 31.875C720.172 35 716.297 37.2656 711.141 38.6719V38.8594C713.984 39.7344 716.344 41.1562 718.219 43.125C720.125 45.0938 721.828 48.0156 723.328 51.8906L729.938 69H707.109ZM705.188 23.1094C705.188 20.8594 704.5 19.0781 703.125 17.7656C701.75 16.4531 699.594 15.7969 696.656 15.7969H692.484V31.1719H696.141C698.859 31.1719 701.047 30.4062 702.703 28.875C704.359 27.3438 705.188 25.4219 705.188 23.1094ZM784.453 48.6562C784.453 53.125 783.25 57.0156 780.844 60.3281C778.469 63.6406 775.125 66.1094 770.812 67.7344C766.5 69.3594 761.312 70.1719 755.25 70.1719C748.219 70.1719 741.781 68.9844 735.938 66.6094V48.1875C738.75 50.25 741.859 51.9219 745.266 53.2031C748.672 54.4531 751.844 55.0781 754.781 55.0781C757 55.0781 758.719 54.6875 759.938 53.9062C761.156 53.0938 761.766 51.9219 761.766 50.3906C761.766 49.2969 761.453 48.3438 760.828 47.5312C760.234 46.6875 759.312 45.9062 758.062 45.1875C756.844 44.4688 754.562 43.4844 751.219 42.2344C740.406 38.0781 735 31.3594 735 22.0781C735 15.5781 737.469 10.3906 742.406 6.51562C747.344 2.60938 753.969 0.65625 762.281 0.65625C764.625 0.65625 766.781 0.75 768.75 0.9375C770.719 1.125 772.5 1.35938 774.094 1.64062C775.719 1.92188 777.984 2.45312 780.891 3.23438V20.3438C775.234 17.25 769.672 15.7031 764.203 15.7031C761.953 15.7031 760.141 16.125 758.766 16.9688C757.391 17.8125 756.703 18.9688 756.703 20.4375C756.703 21.8438 757.25 23.0156 758.344 23.9531C759.469 24.8594 761.797 26.0469 765.328 27.5156C772.297 30.3281 777.219 33.4062 780.094 36.75C783 40.0938 784.453 44.0625 784.453 48.6562Z" fill="#0AA864"/>
</svg>
